<svg width="43" height="35" viewBox="0 0 43 35" fill="none" xmlns="http://www.w3.org/2000/svg">
<path d="M6.74799 5.1875H41L36.1719 21.8769H11.5761" stroke="#676eff" stroke-width="3" stroke-linecap="round" stroke-linejoin="round"/>
<path d="M15.5264 32.93C16.9899 32.93 18.1762 31.6985 18.1762 30.1793C18.1762 28.6602 16.9899 27.4287 15.5264 27.4287C14.063 27.4287 12.8766 28.6602 12.8766 30.1793C12.8766 31.6985 14.063 32.93 15.5264 32.93Z" stroke="#3C64B1" stroke-width="3" stroke-miterlimit="10" stroke-linecap="round"/>
<path d="M32.8071 32.93C34.2705 32.93 35.4568 31.6985 35.4568 30.1793C35.4568 28.6602 34.2705 27.4287 32.8071 27.4287C31.3436 27.4287 30.1573 28.6602 30.1573 30.1793C30.1573 31.6985 31.3436 32.93 32.8071 32.93Z" stroke="#3C64B1" stroke-width="3" stroke-miterlimit="10" stroke-linecap="round"/>
<path d="M1.91992 1.8125H5.07364L12.3239 27.4456H15.2176" stroke="#676eff" stroke-width="3" stroke-linecap="round" stroke-linejoin="round"/>
<path d="M12.324 9.33862H34.0749" stroke="#676eff" stroke-width="3" stroke-miterlimit="10" stroke-linecap="round"/>
<path d="M14.7462 14.3506H26.8246" stroke="#676eff" stroke-width="3" stroke-miterlimit="10" stroke-linecap="round"/>
<path d="M16.0954 27.4456H31.9615" stroke="#676eff" stroke-width="3" stroke-linecap="square" stroke-linejoin="round"/>
</svg>
