<svg  width="25" height="24" viewBox="0 0 25 24" fill="none" xmlns="http://www.w3.org/2000/svg">
<path d="M11.2733 1.00098C9.02011 1.00098 7.17418 2.8043 7.17418 5.003C5.42708 4.9841 3.7345 5.003 2.00025 5.003C0.612049 5.09938 0.714085 7.04177 2.05229 7.00291H3.07306V18.9991C3.07306 21.1978 4.92099 22.999 7.17418 22.999H17.424C19.6772 22.999 21.5151 21.1978 21.5151 18.9991V7.00291H22.5439C23.9409 7.03315 23.9409 4.97276 22.5439 5.003C20.8297 5.00001 19.1392 5.003 17.424 5.003C17.424 2.8043 15.5761 1.00098 13.3229 1.00098H11.2733ZM11.2733 3.00297H13.3229C14.4761 3.00297 15.3744 3.87772 15.3744 5.003H9.22374C9.22374 3.87772 10.1201 3.00297 11.2733 3.00297ZM5.12262 7.00291H19.4655V18.9991C19.4655 20.1243 18.5772 20.9991 17.424 20.9991H7.17418C6.02099 20.9991 5.12262 20.1243 5.12262 18.9991V7.00291ZM8.17895 9.98543C7.61296 9.99677 7.16308 10.4526 7.17418 11.0049V16.9971C7.20385 18.3012 9.19408 18.3012 9.22374 16.9971V11.0049C9.23517 10.4373 8.76064 9.97428 8.17895 9.98543ZM12.2801 9.98543C11.7133 9.99677 11.2622 10.4519 11.2733 11.0049V16.9971C11.2424 18.3602 13.3537 18.3602 13.3229 16.9971V11.0049C13.3342 10.4381 12.861 9.97541 12.2801 9.98543ZM16.3792 9.98543C15.8132 9.99677 15.3633 10.4526 15.3744 11.0049V16.9971C15.4041 18.3012 17.3943 18.3012 17.424 16.9971V11.0049C17.4354 10.4373 16.9609 9.97428 16.3792 9.98543Z" fill="white"/>
</svg>
