<svg width="35" height="35" viewBox="0 0 35 35" fill="none" xmlns="http://www.w3.org/2000/svg">
<path d="M17.5 0C14.0994 0.00645548 10.774 1.00083 7.92897 2.862C5.08392 4.72317 2.84198 7.37081 1.47621 10.4824C0.110447 13.594 -0.32019 17.0353 0.236756 20.3871C0.793702 23.7389 2.31419 26.8566 4.61302 29.3603C6.25488 31.1385 8.24757 32.5576 10.4655 33.5283C12.6835 34.4989 15.0786 35 17.5 35C19.9214 35 22.3165 34.4989 24.5345 33.5283C26.7524 32.5576 28.7451 31.1385 30.387 29.3603C32.6858 26.8566 34.2063 23.7389 34.7632 20.3871C35.3202 17.0353 34.8896 13.594 33.5238 10.4824C32.158 7.37081 29.9161 4.72317 27.071 2.862C24.226 1.00083 20.9006 0.00645548 17.5 0ZM17.5 31.5326C13.8679 31.5271 10.3796 30.1141 7.76902 27.591C8.5616 25.6632 9.90989 24.0143 11.6426 22.8539C13.3752 21.6935 15.4141 21.0739 17.5 21.0739C19.5859 21.0739 21.6248 21.6935 23.3574 22.8539C25.0901 24.0143 26.4384 25.6632 27.231 27.591C24.6204 30.1141 21.1321 31.5271 17.5 31.5326ZM13.9933 14.0145C13.9933 13.3215 14.199 12.6441 14.5843 12.068C14.9696 11.4918 15.5173 11.0427 16.1581 10.7776C16.7988 10.5124 17.5039 10.443 18.1841 10.5782C18.8643 10.7134 19.4892 11.0471 19.9796 11.5371C20.47 12.027 20.804 12.6513 20.9393 13.331C21.0746 14.0106 21.0051 14.7151 20.7397 15.3553C20.4743 15.9955 20.0249 16.5427 19.4482 16.9276C18.8715 17.3126 18.1936 17.5181 17.5 17.5181C16.57 17.5181 15.678 17.149 15.0204 16.4919C14.3628 15.8349 13.9933 14.9437 13.9933 14.0145ZM29.6155 24.5253C28.049 21.8482 25.6379 19.7657 22.76 18.6042C23.6527 17.5928 24.2344 16.3455 24.4352 15.012C24.6361 13.6785 24.4475 12.3154 23.8922 11.0863C23.3369 9.85723 22.4384 8.81434 21.3046 8.08279C20.1707 7.35125 18.8497 6.96213 17.5 6.96213C16.1503 6.96213 14.8293 7.35125 13.6954 8.08279C12.5616 8.81434 11.6631 9.85723 11.1078 11.0863C10.5525 12.3154 10.3639 13.6785 10.5648 15.012C10.7656 16.3455 11.3473 17.5928 12.24 18.6042C9.36209 19.7657 6.95103 21.8482 5.38449 24.5253C4.13602 22.4006 3.47637 19.982 3.47336 17.5181C3.47336 13.8012 4.95116 10.2366 7.58167 7.60837C10.2122 4.98014 13.7799 3.50362 17.5 3.50362C21.2201 3.50362 24.7878 4.98014 27.4183 7.60837C30.0488 10.2366 31.5266 13.8012 31.5266 17.5181C31.5236 19.982 30.864 22.4006 29.6155 24.5253Z" fill="#676eff"/>
</svg>
