<svg width="35" height="35" viewBox="0 0 35 35" fill="none" xmlns="http://www.w3.org/2000/svg">
<path d="M4.12692 24.046C6.55159 26.4734 9.78048 27.9305 13.2053 28.143C16.6301 28.3555 20.0145 27.3086 22.7208 25.1995L32.0326 34.5086C32.3628 34.8275 32.8051 35.0039 33.2642 34.9999C33.7233 34.9959 34.1625 34.8119 34.4871 34.4873C34.8118 34.1627 34.9959 33.7237 34.9999 33.2647C35.0039 32.8058 34.8274 32.3636 34.5085 32.0334L25.1967 22.7244C27.3999 19.8976 28.4416 16.3371 28.1092 12.7689C27.7769 9.2008 26.0955 5.89379 23.408 3.52235C20.7205 1.15091 17.2293 -0.10632 13.6465 0.00705149C10.0637 0.120423 6.65901 1.59586 4.12692 4.13246C2.81857 5.43976 1.78069 6.99196 1.07258 8.70037C0.364467 10.4088 0 12.2399 0 14.0892C0 15.9385 0.364467 17.7696 1.07258 19.4781C1.78069 21.1865 2.81857 22.7387 4.12692 24.046ZM6.60283 6.61114C8.33382 4.8807 10.6114 3.80379 13.0476 3.56389C15.4838 3.324 17.9278 3.93596 19.9632 5.29552C21.9987 6.65508 23.4996 8.67811 24.2103 11.0199C24.9211 13.3618 24.7976 15.8775 23.8609 18.1385C22.9243 20.3996 21.2325 22.266 19.0737 23.4198C16.9149 24.5736 14.4227 24.9434 12.0217 24.4663C9.6207 23.9891 7.45949 22.6945 5.90627 20.8029C4.35306 18.9114 3.50393 16.54 3.50356 14.0927C3.49876 12.7021 3.77025 11.3243 4.30228 10.0394C4.8343 8.75453 5.61628 7.58804 6.60283 6.60764V6.61114Z" fill="#676eff"/>
</svg>
